<svg width="24" height="22" viewBox="0 0 24 22" fill="none" xmlns="http://www.w3.org/2000/svg">
<path d="M23 2.00064C22.0424 2.71588 20.9821 3.26293 19.86 3.62071C19.2577 2.88745 18.4573 2.36774 17.567 2.13186C16.6767 1.89598 15.7395 1.95531 14.8821 2.30184C14.0247 2.64836 13.2884 3.26535 12.773 4.06937C12.2575 4.87338 11.9877 5.82563 12 6.79731V7.85618C10.2426 7.90443 8.50127 7.49173 6.93101 6.65484C5.36074 5.81794 4.01032 4.58283 3 3.05951C3 3.05951 -1 12.5893 8 16.8248C5.94053 18.3051 3.48716 19.0473 1 18.9425C10 24.2369 21 18.9425 21 6.76555C20.9991 6.4706 20.9723 6.17639 20.92 5.88669C21.9406 4.82093 22.6608 3.47534 23 2.00064V2.00064Z" stroke="white" stroke-width="2" stroke-linecap="round" stroke-linejoin="round"/>
</svg>
